
<svg width="14px" height="12px" viewBox="0 0 14 12" version="1.1" xmlns="http://www.w3.org/2000/svg" xmlns:xlink="http://www.w3.org/1999/xlink">
    <!-- Generator: Sketch 50.2 (55047) - http://www.bohemiancoding.com/sketch -->
    <desc>Created with Sketch.</desc>
    <defs></defs>
    <g id="Page-1" stroke="none" stroke-width="1" fill="none" fill-rule="evenodd">
        <g id="Desktop" transform="translate(-945.000000, -33.000000)" fill="#FFFFFF" fill-rule="nonzero">
            <g id="Header">
                <g id="Social-media-icons-Copy" transform="translate(920.000000, 30.727273)">
                    <g id="blogger" transform="translate(25.000000, 2.000000)">
                        <path d="M12.3474561,4.85789474 L11.7302632,4.85789474 C11.2471491,4.85789474 10.8555263,4.501874 10.8555263,4.06267943 L10.8555263,4.00729665 C10.8555263,2.16311802 9.21100877,0.668102073 7.18241228,0.668102073 L4.43912281,0.668102073 C2.41052632,0.668102073 0.766008772,2.16311802 0.766008772,4.00729665 L0.766008772,8.70933014 C0.766008772,10.5535088 2.41052632,12.0485247 4.43912281,12.0485247 L9.54907895,12.0485247 C11.5776754,12.0485247 13.222193,10.5535088 13.222193,8.70933014 L13.222193,5.65314992 C13.222193,5.21391547 12.8305263,4.85789474 12.3474561,4.85789474 Z M4.59631579,3.55566188 L7.52350877,3.55566188 C7.91907895,3.55566188 8.23973684,3.84716906 8.23973684,4.20677831 C8.23973684,4.56638756 7.91907895,4.85789474 7.52350877,4.85789474 L4.59631579,4.85789474 C4.20074561,4.85789474 3.88008772,4.56638756 3.88008772,4.20677831 C3.88008772,3.84716906 4.20074561,3.55566188 4.59631579,3.55566188 Z M9.45421053,9.16092504 L4.59631579,9.16092504 C4.20074561,9.16092504 3.88008772,8.86941786 3.88008772,8.50980861 C3.88008772,8.15019936 4.20074561,7.85869219 4.59631579,7.85869219 L9.45421053,7.85869219 C9.8497807,7.85869219 10.1704386,8.15019936 10.1704386,8.50980861 C10.1704386,8.86937799 9.84973684,9.16092504 9.45421053,9.16092504 Z" id="Shape"></path>
                    </g>
                </g>
            </g>
        </g>
    </g>
</svg>