
<svg width="24px" height="18px" viewBox="0 0 24 18" version="1.1" xmlns="http://www.w3.org/2000/svg" xmlns:xlink="http://www.w3.org/1999/xlink">
    <!-- Generator: Sketch 50.2 (55047) - http://www.bohemiancoding.com/sketch -->
    <desc>Created with Sketch.</desc>
    <defs></defs>
    <g id="Page-1" stroke="none" stroke-width="1" fill="none" fill-rule="evenodd">
        <g id="Desktop" transform="translate(-188.000000, -911.000000)">
            <g id="Body" transform="translate(109.000000, 475.000000)">
                <g id="Contact" transform="translate(3.000000, 221.000000)">
                    <g id="Email-contact" transform="translate(76.000000, 213.000000)">
                        <g id="envelope" transform="translate(0.000000, 2.000000)">
                            <rect id="Rectangle-6" fill="#000000" x="0" y="0" width="24" height="18" rx="3"></rect>
                            <path d="M21.0396694,0.0365853659 L2.93057851,0.0365853659 C1.31404959,0.0365853659 0,1.32926829 0,2.9195122 L0,15.095122 C0,16.6853659 1.31404959,17.9780488 2.93057851,17.9780488 L21.0347107,17.9780488 C22.6512397,17.9780488 23.9652893,16.6853659 23.9652893,15.095122 L23.9652893,2.92439024 C23.9702479,1.33414634 22.6561983,0.0365853659 21.0396694,0.0365853659 Z M22.631405,15.095122 C22.631405,15.9585366 21.9173554,16.6609756 21.0396694,16.6609756 L2.93057851,16.6609756 C2.05289256,16.6609756 1.33884298,15.9585366 1.33884298,15.095122 L1.33884298,2.92439024 C1.33884298,2.06097561 2.05289256,1.35853659 2.93057851,1.35853659 L21.0347107,1.35853659 C21.9123967,1.35853659 22.6264463,2.06097561 22.6264463,2.92439024 L22.6264463,15.095122 L22.631405,15.095122 Z" id="Shape" fill="#000000" fill-rule="nonzero"></path>
                            <path d="M15.2483897,8.84973887 L21.3612833,3.46679641 C21.6457242,3.21288402 21.6715825,2.78123298 21.4129998,2.49685111 C21.1544172,2.21754749 20.7148267,2.19215626 20.4252142,2.44606864 L11.9954201,9.87554488 L10.3508346,8.43332256 C10.3456629,8.42824431 10.3404913,8.42316607 10.3404913,8.41808782 C10.3042897,8.38254009 10.2680881,8.3520706 10.2267149,8.32160112 L3.53459621,2.44099039 C3.24498366,2.18707801 2.80539317,2.21246925 2.54681054,2.49685111 C2.2882279,2.78123298 2.31408616,3.21288402 2.60369872,3.46679641 L8.78899543,8.89544309 L2.62955698,14.5576892 C2.35028773,14.8166798 2.33477277,15.2483308 2.59852706,15.5276345 C2.73816169,15.6698254 2.92434119,15.7459991 3.11052069,15.7459991 C3.28118523,15.7459991 3.45184977,15.6850601 3.58631274,15.5631822 L9.83884094,9.81968416 L11.5351431,11.3076107 C11.669606,11.4244104 11.8350989,11.4802711 12.0005918,11.4802711 C12.1660847,11.4802711 12.3367492,11.4193322 12.4660405,11.3025325 L14.2088875,9.76890168 L20.4252142,15.5682604 C20.5596771,15.6952166 20.7355133,15.7561556 20.9061779,15.7561556 C21.0923574,15.7561556 21.2733652,15.6850601 21.4129998,15.5428692 C21.6767541,15.2686438 21.6664108,14.8319145 21.3871416,14.5729239 L15.2483897,8.84973887 Z" id="Shape" fill="#FFFFFF" fill-rule="nonzero"></path>
                        </g>
                    </g>
                </g>
            </g>
        </g>
    </g>
</svg>