
<svg width="14px" height="14px" viewBox="0 0 14 14" version="1.1" xmlns="http://www.w3.org/2000/svg" xmlns:xlink="http://www.w3.org/1999/xlink">
    <!-- Generator: Sketch 50.2 (55047) - http://www.bohemiancoding.com/sketch -->
    <desc>Created with Sketch.</desc>
    <defs></defs>
    <g id="Page-1" stroke="none" stroke-width="1" fill="none" fill-rule="evenodd">
        <g id="Desktop" transform="translate(-969.000000, -32.000000)" fill="#FFFFFF" fill-rule="nonzero">
            <g id="Header">
                <g id="Social-media-icons-Copy" transform="translate(920.000000, 30.727273)">
                    <g id="github-logo" transform="translate(49.000000, 2.000000)">
                        <path d="M13.0474897,3.25073533 C12.4221777,2.25403263 11.5739818,1.46494172 10.5026788,0.883284594 C9.4312164,0.301597796 8.26149886,0.0108285654 6.99269704,0.0108285654 C5.72405467,0.0108285654 4.55395444,0.301686798 3.48271526,0.883284594 C2.41131663,1.46491206 1.56315262,2.25403263 0.937840547,3.25073533 C0.312624146,4.24740835 0,5.335783 0,6.51582962 C0,7.93333333 0.444555809,9.20798898 1.33389066,10.3401229 C2.22312984,11.4723458 3.37189522,12.2558 4.78009112,12.6905743 C4.94400911,12.7188769 5.06535308,12.6989701 5.14425057,12.6313583 C5.22317995,12.5636576 5.26259681,12.4788684 5.26259681,12.3773469 C5.26259681,12.3604069 5.26103417,12.2080059 5.25800456,11.9199661 C5.25487927,11.6319263 5.2534123,11.3806442 5.2534123,11.1662386 L5.04398633,11.1999407 C4.91046014,11.2226955 4.74201367,11.2323374 4.53864692,11.229608 C4.33537585,11.2269676 4.12435535,11.2071498 3.90587244,11.170303 C3.68729385,11.1337826 3.48399089,11.0490824 3.2958041,10.9163806 C3.10771298,10.7836787 2.97418679,10.6099767 2.8952574,10.3955414 L2.80420957,10.2006273 C2.74352164,10.0708625 2.64797722,9.92670905 2.51744875,9.768701 C2.38692027,9.61054461 2.25492483,9.50332698 2.12139863,9.4468701 L2.0576492,9.40441619 C2.01517084,9.37620259 1.97575399,9.34217419 1.93930296,9.30268701 C1.90288383,9.26319983 1.87561731,9.22368298 1.85740774,9.1841068 C1.83916629,9.14450095 1.85428246,9.11201526 1.90291572,9.08653104 C1.95154897,9.06104683 2.03943964,9.04867557 2.16697039,9.04867557 L2.34900228,9.07398178 C2.47041002,9.09661793 2.62058314,9.16422971 2.79971298,9.27723246 C2.97874715,9.39014622 3.12592255,9.53694003 3.24127107,9.71755457 C3.38095216,9.94913753 3.54923918,10.1255986 3.74661048,10.2470269 C3.94382232,10.3684552 4.14266059,10.4290655 4.34293394,10.4290655 C4.54320729,10.4290655 4.71618223,10.4149438 4.86192255,10.3868489 C5.00750342,10.3586056 5.14409112,10.3161517 5.27162187,10.2597245 C5.32625057,9.88122907 5.47498861,9.59045984 5.71770843,9.38720915 C5.37175854,9.35338843 5.06072893,9.30244967 4.78446014,9.23471922 C4.5083508,9.16689977 4.22302506,9.05683408 3.92867426,8.90422547 C3.63416401,8.75182454 3.38984966,8.56257682 3.19566743,8.33680865 C3.0014533,8.11092181 2.84206378,7.81436745 2.7177221,7.44741259 C2.59331663,7.08030939 2.53109795,6.65683831 2.53109795,6.1768807 C2.53109795,5.49349438 2.77091572,4.91195592 3.25045558,4.43193897 C3.02581777,3.91816063 3.04702506,3.34219962 3.31414123,2.70411528 C3.49017768,2.65323586 3.75123462,2.69141767 4.09718451,2.81842339 C4.44319818,2.94548845 4.69653759,3.05433778 4.85745786,3.14458572 C5.01837813,3.23480398 5.14731207,3.31125662 5.24445103,3.37326128 C5.80907517,3.22649714 6.39174943,3.15310023 6.99263326,3.15310023 C7.59351708,3.15310023 8.17631891,3.22649714 8.74097494,3.37326128 L9.08695672,3.17006993 C9.32355353,3.03449036 9.60294761,2.9102437 9.92446925,2.79730028 C10.2461822,2.68441619 10.4921868,2.65332486 10.6622278,2.70420428 C10.9352756,3.34231829 10.9596082,3.91824963 10.7349066,4.43202797 C11.2144146,4.91204492 11.454328,5.49373172 11.454328,6.1769697 C11.454328,6.65692732 11.3918861,7.08173342 11.267672,7.45165501 C11.1432984,7.82163594 10.9825376,8.11789362 10.7853257,8.34105107 C10.5878907,8.56417885 10.3420137,8.75194321 10.0476629,8.90431447 C9.75324829,9.05680441 9.46782688,9.1668701 9.19171754,9.23468955 C8.91548064,9.30250901 8.60445103,9.35347743 8.25850114,9.38735749 C8.57402733,9.64136893 8.73182232,10.0423225 8.73182232,10.5900403 L8.73182232,12.3771096 C8.73182232,12.4786311 8.76977221,12.5633905 8.84573576,12.631121 C8.92160364,12.6987328 9.04141686,12.7186395 9.20533485,12.6903073 C10.6137221,12.2555923 11.7624875,11.4721085 12.6516948,10.3398856 C13.5408064,9.20775164 13.9855216,7.93309599 13.9855216,6.51559229 C13.9852027,5.335694 13.6724191,4.24740835 13.0474897,3.25073533 Z" id="Shape"></path>
                    </g>
                </g>
            </g>
        </g>
    </g>
</svg>