
<svg width="14px" height="15px" viewBox="0 0 14 15" version="1.1" xmlns="http://www.w3.org/2000/svg" xmlns:xlink="http://www.w3.org/1999/xlink">
    <!-- Generator: Sketch 50.2 (55047) - http://www.bohemiancoding.com/sketch -->
    <desc>Created with Sketch.</desc>
    <defs></defs>
    <g id="Page-1" stroke="none" stroke-width="1" fill="none" fill-rule="evenodd">
        <g id="Desktop" transform="translate(-921.000000, -30.000000)" fill="#FFFFFF" fill-rule="nonzero">
            <g id="Header">
                <g id="Social-media-icons-Copy" transform="translate(920.000000, 30.727273)">
                    <g id="linkedin">
                        <g id="Group" transform="translate(0.982456, 0.026316)">
                            <path d="M1.72171053,0.00942982456 C2.63719298,0.0101754386 3.39223684,0.766315789 3.39026316,1.68635965 C3.38807018,2.64973684 2.58859649,3.37583333 1.7104386,3.35491228 C0.819736842,3.3729386 0.0369736842,2.62899123 0.0371491228,1.68 C0.0371491228,0.759605263 0.795131579,0.00872807018 1.72171053,0.00942982456 Z" id="Shape"></path>
                            <path d="M2.69434211,13.9241667 L0.732894737,13.9241667 C0.478333333,13.9241667 0.271973684,13.717807 0.271973684,13.4632456 L0.271973684,5.09561404 C0.271973684,4.84105263 0.478333333,4.63469298 0.732894737,4.63469298 L2.69434211,4.63469298 C2.94890351,4.63469298 3.15526316,4.84105263 3.15526316,5.09561404 L3.15526316,13.4632895 C3.1552193,13.717807 2.94890351,13.9241667 2.69434211,13.9241667 Z" id="Shape"></path>
                            <path d="M13.9861404,7.57377193 C13.9861404,5.8195614 12.5640789,4.39745614 10.8098246,4.39745614 L10.3067544,4.39745614 C9.34701754,4.39745614 8.49912281,4.87631579 7.98912281,5.60824561 C7.93350877,5.68802632 7.88201754,5.77087719 7.83473684,5.85640351 C7.81837719,5.85394737 7.80868421,5.85267544 7.80846491,5.85311404 L7.80846491,4.82600877 C7.80846491,4.72035088 7.72280702,4.63464912 7.61710526,4.63464912 L5.16995614,4.63464912 C5.06429825,4.63464912 4.97859649,4.72030702 4.97859649,4.82600877 L4.97859649,13.7328947 C4.97859649,13.8385526 5.06421053,13.9242105 5.16986842,13.9242544 L7.67035088,13.9248684 C7.77605263,13.9249123 7.86175439,13.8392105 7.86175439,13.7335088 L7.86175439,8.58776316 C7.86175439,7.69828947 8.57118421,6.95973684 9.46061404,6.94969298 C9.91464912,6.9445614 10.3262719,7.12649123 10.6229386,7.42333333 C10.9157018,7.71592105 11.0967105,8.12048246 11.0967105,8.56714912 L11.0967105,13.7341667 C11.0967105,13.8398246 11.1823684,13.9254825 11.2879825,13.9255263 L13.7946491,13.9261404 C13.9003509,13.9261842 13.9860526,13.8404825 13.9860526,13.7347807 L13.9860526,7.57377193 L13.9861404,7.57377193 Z" id="Shape"></path>
                        </g>
                    </g>
                </g>
            </g>
        </g>
    </g>
</svg>