
<svg width="105px" height="76px" viewBox="0 0 105 76" version="1.1" xmlns="http://www.w3.org/2000/svg" xmlns:xlink="http://www.w3.org/1999/xlink">
    <!-- Generator: Sketch 50.2 (55047) - http://www.bohemiancoding.com/sketch -->
    <desc>Created with Sketch.</desc>
    <defs></defs>
    <g id="Page-1" stroke="none" stroke-width="1" fill="none" fill-rule="evenodd">
        <g id="bs">
            <g id="Layer0_0_FILL-link" fill="#FFFFFF" fill-rule="nonzero">
                <g id="Layer0_0_FILL">
                    <path d="M47.6,35.95 C51.5666667,29.7166667 52.6833333,23.3333333 50.95,16.8 C48.45,7.2 42.85,1.76666667 34.15,0.5 L0.5,0.5 L0.5,19.15 L28.4,19.15 C30.1,19.05 31.3166667,19.6333333 32.05,20.9 C32.75,22.1333333 32.8333333,23.45 32.3,24.85 C31.7666667,26.25 30.4666667,26.9833333 28.4,27.05 L0.5,27.05 L0.5,45.45 L27.85,45.45 C30.7166667,45.9166667 32.2666667,47.5833333 32.5,50.45 C32.7333333,53.3166667 31.15,55.05 27.75,55.65 L0.5,55.65 L0.5,74.6 L31.55,74.6 C41.0166667,74.3666667 47.4,68.9333333 50.7,58.3 C52.6,48.8 51.5666667,41.35 47.6,35.95 Z M94.5,35.2 L82.85,23.5 C80.15,20.7333333 78.1666667,18.1833333 76.9,15.85 C75.7333333,14.1833333 75,12.0833333 74.7,9.55 L74.6,0.7 L56.05,0.7 L56.05,9.9 C56.5833333,20.6 61.35,30.1166667 70.35,38.45 L82.75,51.05 C83.75,52.0166667 84.15,53.0166667 83.95,54.05 C83.7166667,55.05 82.9166667,55.5166667 81.55,55.45 L53.35,55.45 L53.35,74.4 L87.15,74.4 C92.8833333,73.8666667 97.15,71.6666667 99.95,67.8 C102.75,63.9333333 104.233333,59.2 104.4,53.6 C104.533333,47.9666667 101.233333,41.8333333 94.5,35.2 Z" id="Shape"></path>
                </g>
            </g>
            <g id="Layer0_0_1_STROKES-link" stroke="#FFFFFF" stroke-linecap="round" stroke-linejoin="round">
                <path d="M56.05,0.7 L74.6,0.7 L74.7,9.55 C75,12.0833333 75.7333333,14.1833333 76.9,15.85 C78.1666667,18.1833333 80.15,20.7333333 82.85,23.5 L94.5,35.2 C101.233333,41.8333333 104.533333,47.9666667 104.4,53.6 C104.233333,59.2 102.75,63.9333333 99.95,67.8 C97.15,71.6666667 92.8833333,73.8666667 87.15,74.4 L53.35,74.4 L53.35,55.45 L81.55,55.45 C82.9166667,55.5166667 83.7166667,55.05 83.95,54.05 C84.15,53.0166667 83.75,52.0166667 82.75,51.05 L70.35,38.45 C61.35,30.1166667 56.5833333,20.6 56.05,9.9 L56.05,0.7 Z M0.5,0.5 L34.15,0.5 C42.85,1.76666667 48.45,7.2 50.95,16.8 C52.6833333,23.3333333 51.5666667,29.7166667 47.6,35.95 C51.5666667,41.35 52.6,48.8 50.7,58.3 C47.4,68.9333333 41.0166667,74.3666667 31.55,74.6 L0.5,74.6 L0.5,55.65 L27.75,55.65 C31.15,55.05 32.7333333,53.3166667 32.5,50.45 C32.2666667,47.5833333 30.7166667,45.9166667 27.85,45.45 L0.5,45.45 L0.5,27.05 L28.4,27.05 C30.4666667,26.9833333 31.7666667,26.25 32.3,24.85 C32.8333333,23.45 32.75,22.1333333 32.05,20.9 C31.3166667,19.6333333 30.1,19.05 28.4,19.15 L0.5,19.15 L0.5,0.5 Z" id="Layer0_0_1_STROKES"></path>
            </g>
        </g>
    </g>
</svg>