
<svg width="25px" height="24px" viewBox="0 0 25 24" version="1.1" xmlns="http://www.w3.org/2000/svg" xmlns:xlink="http://www.w3.org/1999/xlink">
    <!-- Generator: Sketch 50.2 (55047) - http://www.bohemiancoding.com/sketch -->
    <desc>Created with Sketch.</desc>
    <defs></defs>
    <g id="Page-1" stroke="none" stroke-width="1" fill="none" fill-rule="evenodd">
        <g id="Desktop" transform="translate(-188.000000, -999.000000)" fill="#000000" fill-rule="nonzero">
            <g id="Body" transform="translate(109.000000, 475.000000)">
                <g id="Contact" transform="translate(3.000000, 221.000000)">
                    <g id="Skype-contact" transform="translate(76.000000, 303.000000)">
                        <g id="icon">
                            <path d="M23.029,13.494 C23.369,13.975 23.628,14.497 23.809,15.069 C23.989,15.639 24.08,16.229 24.08,16.84 C24.08,17.715 23.903,18.537 23.553,19.307 C23.202,20.075 22.719,20.752 22.103,21.34 C21.487,21.922 20.77,22.379 19.946,22.711 C19.122,23.043 18.255,23.206 17.333,23.206 C16.02,23.206 14.842,22.896 13.797,22.277 C13.507,22.317 13.215,22.346 12.92,22.368 C12.624,22.388 12.331,22.396 12.038,22.396 C10.504,22.396 9.064,22.121 7.717,21.573 C6.373,21.022 5.196,20.274 4.182,19.321 C3.171,18.372 2.374,17.253 1.8,15.972 C1.221,14.691 0.932,13.322 0.932,11.867 C0.932,11.585 0.946,11.317 0.976,11.069 C1.003,10.821 1.04,10.568 1.078,10.315 C0.358,9.316 0,8.243 0,7.092 C0,6.236 0.177,5.427 0.528,4.666 C0.878,3.906 1.358,3.245 1.974,2.684 C2.59,2.122 3.311,1.68 4.13,1.356 C4.951,1.032 5.822,0.874 6.744,0.874 C7.408,0.874 8.031,0.952 8.623,1.111 C9.215,1.272 9.769,1.496 10.28,1.789 C10.569,1.748 10.865,1.719 11.157,1.696 C11.453,1.678 11.749,1.667 12.038,1.667 C13.577,1.667 15.022,1.935 16.373,2.468 C17.721,2.997 18.901,3.73 19.915,4.66 C20.929,5.594 21.728,6.675 22.308,7.905 C22.886,9.137 23.175,10.459 23.175,11.867 C23.176,12.386 23.128,12.929 23.029,13.494 Z M17.333,16.696 C17.807,16.072 18.041,15.339 18.041,14.497 C18.041,13.834 17.909,13.277 17.649,12.825 C17.378,12.375 16.996,11.998 16.503,11.697 C16.05,11.405 15.461,11.146 14.74,10.914 C14.015,10.732 13.246,10.554 12.433,10.372 L11.542,10.169 C11.303,10.118 11.113,10.075 10.97,10.036 C10.811,9.997 10.664,9.954 10.524,9.903 C10.392,9.856 10.252,9.801 10.112,9.741 C9.84,9.627 9.612,9.472 9.431,9.29 C9.291,9.133 9.221,8.922 9.221,8.66 C9.221,8.277 9.449,7.935 9.902,7.632 C10.415,7.349 11.042,7.213 11.787,7.222 C12.648,7.222 13.253,7.349 13.594,7.604 C14.006,7.906 14.329,8.278 14.56,8.717 C14.761,9.039 14.965,9.279 15.176,9.437 C15.377,9.591 15.656,9.674 16.007,9.685 C16.402,9.685 16.729,9.554 17.004,9.29 C17.273,9.044 17.402,8.767 17.395,8.455 C17.395,8.094 17.293,7.739 17.093,7.397 C16.895,7.076 16.562,6.734 16.103,6.371 C15.871,6.215 15.616,6.072 15.341,5.941 C15.065,5.809 14.755,5.693 14.418,5.595 C14.065,5.499 13.694,5.425 13.303,5.375 C12.911,5.326 12.483,5.303 12.009,5.303 C10.815,5.303 9.808,5.449 8.988,5.741 C8.107,6.045 7.44,6.463 6.988,7.005 C6.536,7.521 6.31,8.141 6.31,8.865 C6.31,9.627 6.529,10.247 6.961,10.725 C7.396,11.242 7.985,11.633 8.73,11.898 C9.438,12.181 10.343,12.429 11.453,12.643 C11.868,12.741 12.231,12.824 12.552,12.887 C12.868,12.949 13.155,13.02 13.406,13.097 C13.879,13.226 14.263,13.442 14.556,13.749 C14.869,14.015 15.026,14.357 15.026,14.779 C15.026,15.362 14.74,15.834 14.175,16.194 C13.641,16.563 12.919,16.745 12.01,16.732 C11.282,16.732 10.755,16.648 10.421,16.478 C10.006,16.289 9.7,16.049 9.499,15.763 C9.244,15.437 9.04,15.075 8.876,14.684 C8.733,14.313 8.54,14.033 8.288,13.844 C8.053,13.653 7.778,13.558 7.455,13.558 C7.043,13.558 6.703,13.673 6.434,13.899 C6.165,14.156 6.036,14.457 6.042,14.795 C6.042,15.384 6.26,15.973 6.692,16.563 C7.121,17.17 7.672,17.644 8.343,17.985 C9.326,18.493 10.561,18.75 12.045,18.76 C13.256,18.76 14.335,18.58 15.274,18.221 C16.196,17.812 16.884,17.305 17.333,16.696 Z" id="Shape"></path>
                        </g>
                    </g>
                </g>
            </g>
        </g>
    </g>
</svg>